<?xml version="1.0" encoding="UTF-8"?>
<svg xmlns="http://www.w3.org/2000/svg" xmlns:xlink="http://www.w3.org/1999/xlink" viewBox="0 0 1026 941">
  <defs>
    <style>
      .cls-1 {
        fill: url(#linear-gradient);
      }

      .cls-1, .cls-2 {
        stroke-width: 0px;
      }

      .cls-2 {
        fill: #fff;
      }
    </style>
    <linearGradient id="linear-gradient" x1="-257.48" y1="-155.11" x2="1390.52" y2="1183.55" gradientUnits="userSpaceOnUse">
      <stop offset=".02" stop-color="#462dff"/>
      <stop offset="1" stop-color="#844fff"/>
    </linearGradient>
  </defs>
  <g id="BG">
    <rect class="cls-1" y=".25" width="1026" height="941"/>
  </g>
  <g id="Logo">
    <g>
      <path class="cls-2" d="M699.04,541.93l-114.36,114.36c-8.01,8.01-20.99,8.01-28.99,0-8.01-8.01-8.01-20.99,0-28.99l114.36-114.36c8.01-8.01,20.99-8.01,28.99,0,8.01,8.01,8.01,20.99,0,28.99Z"/>
      <path class="cls-2" d="M697.43,429.18l-16.11,16.11c-8.01,8.01-20.99,8.01-28.99,0-8.01-8.01-8.01-20.99,0-28.99l16.11-16.11c8.01-8.01,20.99-8.01,28.99,0,8.01,8.01,8.01,20.99,0,28.99Z"/>
      <path class="cls-2" d="M632.2,494.41l-160.27,160.27c-8.01,8.01-20.99,8.01-28.99,0-8.01-8.01-8.01-20.99,0-28.99l160.27-160.27c8.01-8.01,20.99-8.01,28.99,0,8.01,8.01,8.01,20.99,0,28.99Z"/>
      <path class="cls-2" d="M680.52,331.73l-306.04,306.04c-8.01,8.01-20.99,8.01-28.99,0-8.01-8.01-8.01-20.99,0-28.99l306.04-306.04c8.01-8.01,20.99-8.01,28.99,0s8.01,20.99,0,28.99Z"/>
      <path class="cls-2" d="M583.07,314.81l-163.49,163.49c-8.01,8.01-20.99,8.01-28.99,0-8.01-8.01-8.01-20.99,0-28.99l163.49-163.49c8.01-8.01,20.99-8.01,28.99,0,8.01,8.01,8.01,20.99,0,28.99Z"/>
      <path class="cls-2" d="M370.45,527.43l-12.89,12.89c-8.01,8.01-20.99,8.01-28.99,0s-8.01-20.99,0-28.99l12.89-12.89c8.01-8.01,20.99-8.01,28.99,0,8.01,8.01,8.01,20.99,0,28.99Z"/>
      <path class="cls-2" d="M470.31,313.2l-114.36,114.36c-8.01,8.01-20.99,8.01-28.99,0-8.01-8.01-8.01-20.99,0-28.99l114.36-114.36c8.01-8.01,20.99-8.01,28.99,0,8.01,8.01,8.01,20.99,0,28.99Z"/>
    </g>
  </g>
</svg>