<?xml version="1.0" encoding="UTF-8"?>
<svg xmlns="http://www.w3.org/2000/svg" xmlns:xlink="http://www.w3.org/1999/xlink" viewBox="0 0 1000 470">
  <defs>
    <style>
      .cls-1 {
        fill: url(#linear-gradient);
      }

      .cls-1, .cls-2 {
        stroke-width: 0px;
      }

      .cls-2 {
        fill: #fff;
      }
    </style>
    <linearGradient id="linear-gradient" x1="-324.6" y1="-155.73" x2="1408.73" y2="665.6" gradientUnits="userSpaceOnUse">
      <stop offset=".02" stop-color="#462dff"/>
      <stop offset="1" stop-color="#844fff"/>
    </linearGradient>
  </defs>
  <g id="Logo">
    <g>
      <g>
        <g>
          <path class="cls-2" d="M427.28,246.75h67.68v15.08h-86.07v-87.56h18.39v72.48Z"/>
          <path class="cls-2" d="M528.79,261.83h-18.5v-87.56h18.5v87.56Z"/>
          <path class="cls-2" d="M550.33,261.83v-87.56h100.22v14.59h-81.83v26.39h57.67v13.13h-57.67v33.44h-18.39Z"/>
          <path class="cls-2" d="M770.02,241.65c0,17.76-5.98,20.92-25.25,20.92h-57.35c-24.59,0-26.22-8.64-26.22-44.39s1.96-44.51,26.22-44.51h57.35c19.26,0,25.25,2.8,25.25,20.8v6.08h-18.28v-2.8c0-7.78-2.72-9.97-6.96-9.97h-57.45c-5.33,0-6.75,6.81-6.96,24.81h52.12v10.95h-52.12c.22,17.88,1.85,24.81,6.96,24.81h57.45c4.24,0,6.96-2.19,6.96-9.97v-2.8h18.28v6.08Z"/>
        </g>
        <g>
          <path class="cls-2" d="M436.67,278.67v3.99h-9.19v13.52h-5.3v-13.52h-9.26v-3.99h23.75Z"/>
          <path class="cls-2" d="M473.76,291.91c0,3.99-1.43,4.42-6.61,4.42h-11.47c-6.59,0-6.83-1.17-6.83-8.85s.34-8.99,6.83-8.99h11.47c5.18,0,6.61.39,6.61,4.42v1.41h-5.3v-.53c0-1.41-.49-1.7-1.31-1.7h-11.47c-1,0-1.29.87-1.34,3.96h10.43v2.75h-10.43c.05,3.01.34,3.94,1.34,3.94h11.47c.83,0,1.31-.32,1.31-1.7v-.53h5.3v1.41Z"/>
          <path class="cls-2" d="M512.49,291.91c0,3.99-1.41,4.42-6.61,4.42h-11.64c-6.59,0-6.83-1.17-6.83-8.85s.34-8.99,6.83-8.99h11.64c5.2,0,6.61.39,6.61,4.42v1.41h-5.28v-.53c0-1.41-.49-1.7-1.31-1.7h-11.67c-1.14,0-1.34,1.12-1.34,5.4s.24,5.25,1.34,5.25h11.67c.83,0,1.31-.32,1.31-1.7v-.53h5.28v1.41Z"/>
          <path class="cls-2" d="M531.62,278.69l13.4,11.38v-11.4h5.3v17.5h-5.3l-13.4-11.38v11.38h-5.3v-17.5h5.3v.02Z"/>
          <path class="cls-2" d="M571.52,296.17c-6.81,0-7.02-1.14-7.02-8.78s.22-8.75,7.02-8.75h12.18c6.81,0,7.02,1.17,7.02,8.75s-.27,8.78-7.02,8.78h-12.18ZM571.49,292.74h12.23c1.12,0,1.31-1.17,1.31-5.35s-.22-5.3-1.34-5.3h-12.18c-1.14,0-1.36,1.09-1.36,5.3s.22,5.35,1.34,5.35Z"/>
          <path class="cls-2" d="M610.17,292.3h14.37v3.87h-19.67v-17.5h5.3v13.64Z"/>
          <path class="cls-2" d="M644.52,296.17c-6.81,0-7.02-1.14-7.02-8.78s.22-8.75,7.02-8.75h12.18c6.81,0,7.02,1.17,7.02,8.75s-.27,8.78-7.02,8.78h-12.18ZM644.49,292.74h12.23c1.12,0,1.31-1.17,1.31-5.35s-.22-5.3-1.34-5.3h-12.18c-1.14,0-1.36,1.09-1.36,5.3s.22,5.35,1.34,5.35Z"/>
          <path class="cls-2" d="M696.25,296.34h-11.64c-6.59,0-6.85-1.14-6.85-8.85s.27-8.99,6.85-8.99h11.64c5.64,0,7.17.39,7.17,4.42v1.21h-5.3v-.34c0-1.36-.49-1.7-1.31-1.7h-12.23c-1.14,0-1.31,1.12-1.31,5.4s.22,5.25,1.31,5.25h12.23c.83,0,1.31-.32,1.31-1.7v-1.77h-5.4v-2.75h10.7v5.4c0,4.04-1.53,4.42-7.17,4.42Z"/>
          <path class="cls-2" d="M722.89,296.17h-5.32v-17.5h5.32v17.5Z"/>
          <path class="cls-2" d="M735.59,296.17l10.86-17.5h5.54l11.13,17.5h-5.59l-2.14-3.38h-12.15l-2.07,3.38h-5.59ZM745.36,289.36h7.85l-3.96-6.27-3.89,6.27Z"/>
        </g>
      </g>
      <path class="cls-2" d="M786.42,179.23c0,4.65-3.45,8.11-8.1,8.12-4.65,0-8.11-3.45-8.11-8.1,0-4.65,3.45-8.11,8.1-8.11,4.65,0,8.11,3.45,8.12,8.1ZM784.76,179.23c0-3.82-2.78-6.59-6.45-6.58-3.7,0-6.47,2.78-6.46,6.6,0,3.82,2.78,6.59,6.48,6.58,3.67,0,6.44-2.78,6.44-6.6ZM780.11,180.3l2.09,3.08h-2.04s-1.76-2.94-1.76-2.94h-1.54s0,2.94,0,2.94h-1.73s0-8.29,0-8.29h3.7c2.06,0,3.11.92,3.11,2.67,0,1.38-.61,2.21-1.82,2.54ZM778.76,178.97c.95,0,1.42-.38,1.42-1.16,0-.78-.48-1.19-1.42-1.18h-1.9s0,2.35,0,2.35h1.9Z"/>
      <g>
        <path class="cls-2" d="M378.85,266.33l-49.99,49.99c-3.5,3.5-9.17,3.5-12.67,0s-3.5-9.17,0-12.67l49.99-49.99c3.5-3.5,9.17-3.5,12.67,0s3.5,9.17,0,12.67Z"/>
        <path class="cls-2" d="M378.15,217.05l-7.04,7.04c-3.5,3.5-9.17,3.5-12.67,0s-3.5-9.17,0-12.67l7.04-7.04c3.5-3.5,9.17-3.5,12.67,0,3.5,3.5,3.5,9.17,0,12.67Z"/>
        <path class="cls-2" d="M349.63,245.56l-70.06,70.06c-3.5,3.5-9.17,3.5-12.67,0-3.5-3.5-3.5-9.17,0-12.67l70.06-70.06c3.5-3.5,9.17-3.5,12.67,0s3.5,9.17,0,12.67Z"/>
        <path class="cls-2" d="M370.75,174.45l-133.78,133.78c-3.5,3.5-9.17,3.5-12.67,0s-3.5-9.17,0-12.67l133.78-133.78c3.5-3.5,9.17-3.5,12.67,0s3.5,9.17,0,12.67Z"/>
        <path class="cls-2" d="M328.16,167.06l-71.46,71.46c-3.5,3.5-9.17,3.5-12.67,0s-3.5-9.17,0-12.67l71.46-71.46c3.5-3.5,9.17-3.5,12.67,0s3.5,9.17,0,12.67Z"/>
        <path class="cls-2" d="M235.22,259.99l-5.63,5.63c-3.5,3.5-9.17,3.5-12.67,0s-3.5-9.17,0-12.67l5.63-5.63c3.5-3.5,9.17-3.5,12.67,0s3.5,9.17,0,12.67Z"/>
        <path class="cls-2" d="M278.87,166.35l-49.99,49.99c-3.5,3.5-9.17,3.5-12.67,0s-3.5-9.17,0-12.67l49.99-49.99c3.5-3.5,9.17-3.5,12.67,0s3.5,9.17,0,12.67Z"/>
      </g>
    </g>
  </g>
</svg>